<svg xmlns="http://www.w3.org/2000/svg" width="512" height="512" viewBox="0 0 64 64" fill="none">
  <defs>
    <linearGradient id="g" x1="12" y1="10" x2="54" y2="58" gradientUnits="userSpaceOnUse">
      <stop stop-color="#2563eb"/>
      <stop offset="1" stop-color="#38bdf8"/>
    </linearGradient>
    <filter id="s" x="-20%" y="-20%" width="140%" height="140%">
      <feDropShadow dx="0" dy="1" stdDeviation="1.2" flood-color="#0f172a" flood-opacity="0.22"/>
    </filter>
  </defs>

  <rect x="6" y="6" width="52" height="52" rx="16" fill="url(#g)"/>
  <rect x="6" y="6" width="52" height="52" rx="16" fill="white" fill-opacity="0.06"/>

  <g filter="url(#s)" fill="#ffffff">
    <path d="M26.3 21.9c-3.5 0-6.3 2.8-6.3 6.3v7.6c0 3.5 2.8 6.3 6.3 6.3h1.6c.9 0 1.6-.7 1.6-1.6s-.7-1.6-1.6-1.6h-1.6c-1.7 0-3.1-1.4-3.1-3.1v-7.6c0-1.7 1.4-3.1 3.1-3.1h1.6c.9 0 1.6-.7 1.6-1.6s-.7-1.6-1.6-1.6h-1.6Z"/>
    <path d="M37.7 21.9c-.9 0-1.6.7-1.6 1.6s.7 1.6 1.6 1.6h1.6c1.7 0 3.1 1.4 3.1 3.1v7.6c0 1.7-1.4 3.1-3.1 3.1h-1.6c-.9 0-1.6.7-1.6 1.6s.7 1.6 1.6 1.6h1.6c3.5 0 6.3-2.8 6.3-6.3v-7.6c0-3.5-2.8-6.3-6.3-6.3h-1.6Z"/>
  </g>
</svg>

